<?xml version="1.0" encoding="UTF-8" standalone="no"?>
<svg
   width="95"
   height="105"
   viewBox="0 0 95 105"
   fill="none"
   version="1.1"
   id="svg25589"
   sodipodi:docname="copywriter.svg"
   inkscape:version="1.1 (c68e22c387, 2021-05-23)"
   xmlns:inkscape="http://www.inkscape.org/namespaces/inkscape"
   xmlns:sodipodi="http://sodipodi.sourceforge.net/DTD/sodipodi-0.dtd"
   xmlns:xlink="http://www.w3.org/1999/xlink"
   xmlns="http://www.w3.org/2000/svg"
   xmlns:svg="http://www.w3.org/2000/svg">
  <sodipodi:namedview
     id="namedview25591"
     pagecolor="#ffffff"
     bordercolor="#666666"
     borderopacity="1.0"
     inkscape:pageshadow="2"
     inkscape:pageopacity="0.0"
     inkscape:pagecheckerboard="0"
     showgrid="false"
     inkscape:zoom="2.7341462"
     inkscape:cx="-0.54861733"
     inkscape:cy="24.68778"
     inkscape:window-width="1920"
     inkscape:window-height="1001"
     inkscape:window-x="-9"
     inkscape:window-y="-9"
     inkscape:window-maximized="1"
     inkscape:current-layer="svg25589" />
  <g
     filter="url(#filter0_d)"
     id="g25554">
    <path
       fill-rule="evenodd"
       clip-rule="evenodd"
       d="M47.4999 17.9999C62.1354 17.9999 73.9999 29.8644 73.9999 44.4999C73.9999 59.1353 62.1354 70.9999 47.4999 70.9999C32.8644 70.9999 20.9999 59.1353 20.9999 44.4999C20.9999 29.8644 32.8644 17.9999 47.4999 17.9999Z"
       fill="#FF4361"
       id="path25550" />
    <path
       fill-rule="evenodd"
       clip-rule="evenodd"
       d="M47.4999 17.9999C62.1354 17.9999 73.9999 29.8644 73.9999 44.4999C73.9999 59.1353 62.1354 70.9999 47.4999 70.9999C32.8644 70.9999 20.9999 59.1353 20.9999 44.4999C20.9999 29.8644 32.8644 17.9999 47.4999 17.9999Z"
       fill="url(#paint0_linear)"
       id="path25552" />
  </g>
  <path
     fill-rule="evenodd"
     clip-rule="evenodd"
     d="M42.9999 0.999936H53C69.5685 0.999936 83 14.4311 83 30.9999V40.9999C83 57.5682 69.5685 70.9998 53 70.9998H42.9999C26.4314 70.9998 12.9999 57.5682 12.9999 40.9999V30.9999C12.9999 14.4311 26.4314 0.999936 42.9999 0.999936Z"
     fill="#FF4361"
     id="path25556"
     style="fill:#ffcc00" />
  <path
     fill-rule="evenodd"
     clip-rule="evenodd"
     d="M 42.9999,0.999936 H 53 c 16.5685,0 30,13.431164 30,29.999964 v 10 C 83,57.5682 69.5685,70.999795 53,70.999795 H 42.9999 C 26.4314,70.999795 12.999899,57.5682 12.999899,40.9999 v -10 C 12.999899,14.4311 26.4314,0.999936 42.9999,0.999936 Z"
     fill="url(#paint1_linear)"
     id="path25558"
     style="fill:url(#linearGradient27258);fill-opacity:1"
     inkscape:transform-center-x="1.6810349"
     inkscape:transform-center-y="0.1293103" />
  <defs
     id="defs25587">
    <linearGradient
       inkscape:collect="always"
       id="linearGradient27256">
      <stop
         style="stop-color:#ff5555;stop-opacity:1;"
         offset="0"
         id="stop27252" />
      <stop
         style="stop-color:#ff5555;stop-opacity:0;"
         offset="1"
         id="stop27254" />
    </linearGradient>
    <filter
       id="filter0_d"
       x="-9.91821e-05"
       y="9.99988"
       width="95"
       height="95"
       filterUnits="userSpaceOnUse"
       color-interpolation-filters="sRGB">
      <feFlood
         flood-opacity="0"
         result="BackgroundImageFix"
         id="feFlood25562" />
      <feColorMatrix
         in="SourceAlpha"
         type="matrix"
         values="0 0 0 0 0 0 0 0 0 0 0 0 0 0 0 0 0 0 127 0"
         id="feColorMatrix25564" />
      <feOffset
         dy="13"
         id="feOffset25566" />
      <feGaussianBlur
         stdDeviation="10.5"
         id="feGaussianBlur25568" />
      <feColorMatrix
         type="matrix"
         values="0 0 0 0 0.94902 0 0 0 0 0.501961 0 0 0 0 0.27451 0 0 0 0.3 0"
         id="feColorMatrix25570" />
      <feBlend
         mode="normal"
         in2="BackgroundImageFix"
         result="effect1_dropShadow"
         id="feBlend25572" />
      <feBlend
         mode="normal"
         in="SourceGraphic"
         in2="effect1_dropShadow"
         result="shape"
         id="feBlend25574" />
    </filter>
    <linearGradient
       id="paint0_linear"
       x1="51.6351"
       y1="103.635"
       x2="106.635"
       y2="40.3649"
       gradientUnits="userSpaceOnUse">
      <stop
         stop-color="#F80759"
         id="stop25577" />
      <stop
         offset="1"
         stop-color="#BC4E9C"
         id="stop25579" />
    </linearGradient>
    <linearGradient
       id="paint1_linear"
       x1="53.4132"
       y1="113.413"
       x2="125.413"
       y2="30.5868"
       gradientUnits="userSpaceOnUse">
      <stop
         stop-color="#F46B45"
         id="stop25582" />
      <stop
         offset="1"
         stop-color="#EEA849"
         id="stop25584" />
    </linearGradient>
    <linearGradient
       inkscape:collect="always"
       xlink:href="#linearGradient27256"
       id="linearGradient27258"
       x1="12.999899"
       y1="35.999866"
       x2="83"
       y2="35.999866"
       gradientUnits="userSpaceOnUse" />
  </defs>
  <g
     transform="matrix(0.00908895,0,0,-0.00652138,23.781302,50.198434)"
     fill="#000000"
     stroke="none"
     id="g26675"
     style="fill:#ffffff;fill-opacity:1">
    <path
       d="m 1790,5105 c -456,-80 -801,-434 -869,-892 -6,-39 -11,-122 -11,-182 v -111 h 240 c 222,0 244,2 280,20 39,20 80,79 80,115 0,13 22,15 150,15 128,0 150,-2 150,-15 0,-36 41,-95 80,-115 38,-19 58,-20 580,-20 h 540 v 111 c 0,240 -55,432 -178,619 -224,340 -647,524 -1042,455 z"
       id="path26659"
       style="fill:#ffffff;fill-opacity:1" />
    <path
       d="m 4132,4255 -222,-445 v -95 -95 h 450 450 v 95 95 l -222,445 c -123,245 -225,445 -228,445 -3,0 -105,-200 -228,-445 z"
       id="path26661"
       style="fill:#ffffff;fill-opacity:1" />
    <path
       d="m 1606,3700 c -21,-16 -63,-39 -95,-52 -52,-21 -75,-22 -328,-26 l -273,-4 v -261 c 0,-183 5,-289 15,-352 68,-418 371,-752 783,-862 85,-23 117,-26 252,-26 135,0 167,3 252,26 347,93 626,350 738,683 49,145 60,238 60,531 v 262 l -572,3 c -570,3 -573,3 -629,26 -31,12 -75,36 -98,52 -22,17 -46,30 -53,29 -7,0 -30,-13 -52,-29 z m 204,-545 c 0,-9 9,-34 20,-55 23,-45 80,-80 130,-80 50,0 107,35 130,80 11,21 20,46 20,55 0,13 22,15 151,15 h 151 l -7,-52 c -10,-69 -38,-144 -76,-202 -90,-135 -273,-215 -435,-188 -202,34 -351,186 -379,390 l -7,52 h 151 c 129,0 151,-2 151,-15 z"
       id="path26663"
       style="fill:#ffffff;fill-opacity:1" />
    <path
       d="m 3910,2415 v -905 h 450 450 v 905 905 h -450 -450 z"
       id="path26665"
       style="fill:#ffffff;fill-opacity:1" />
    <path
       d="m 1663,1790 c 10,-111 78,-208 176,-253 64,-30 178,-30 242,0 98,45 166,142 176,253 l 6,57 -74,-15 c -99,-20 -359,-20 -458,0 l -74,15 z"
       id="path26667"
       style="fill:#ffffff;fill-opacity:1" />
    <path
       d="M 965,1804 C 861,1783 828,1774 775,1752 598,1677 444,1524 370,1350 315,1219 316,1239 313,597 L 309,0 h 300 301 v 455 455 h 150 150 V 455 0 h 750 750 v 455 455 h 150 150 V 455 0 h 301 300 l -4,598 c -3,641 -2,621 -57,752 -73,172 -229,328 -400,400 -111,47 -147,52 -372,57 l -218,5 v -28 c 0,-16 -7,-60 -15,-99 -57,-270 -309,-475 -585,-475 -276,0 -528,205 -585,475 -8,39 -15,82 -15,98 v 27 l -187,-1 c -104,-1 -197,-3 -208,-5 z"
       id="path26669"
       style="fill:#ffffff;fill-opacity:1" />
    <path
       d="M 3910,1060 V 910 h 450 450 v 150 150 h -450 -450 z"
       id="path26671"
       style="fill:#ffffff;fill-opacity:1" />
    <path
       d="M 3910,305 V 0 h 450 450 v 305 305 h -450 -450 z"
       id="path26673"
       style="fill:#ffffff;fill-opacity:1" />
  </g>
</svg>
