<?xml version="1.0" encoding="UTF-8" standalone="no"?>
<svg
   width="95"
   height="105"
   viewBox="0 0 95 105"
   fill="none"
   version="1.1"
   id="svg20540"
   sodipodi:docname="partnership.svg"
   inkscape:version="1.1 (c68e22c387, 2021-05-23)"
   xmlns:inkscape="http://www.inkscape.org/namespaces/inkscape"
   xmlns:sodipodi="http://sodipodi.sourceforge.net/DTD/sodipodi-0.dtd"
   xmlns:xlink="http://www.w3.org/1999/xlink"
   xmlns="http://www.w3.org/2000/svg"
   xmlns:svg="http://www.w3.org/2000/svg">
  <sodipodi:namedview
     id="namedview20542"
     pagecolor="#ffffff"
     bordercolor="#666666"
     borderopacity="1.0"
     inkscape:pageshadow="2"
     inkscape:pageopacity="0.0"
     inkscape:pagecheckerboard="0"
     showgrid="false"
     inkscape:zoom="3.8666667"
     inkscape:cx="32.974138"
     inkscape:cy="34.008621"
     inkscape:window-width="1920"
     inkscape:window-height="1001"
     inkscape:window-x="-9"
     inkscape:window-y="-9"
     inkscape:window-maximized="1"
     inkscape:current-layer="svg20540" />
  <g
     filter="url(#filter0_d)"
     id="g20505"
     transform="translate(-0.25862069,-2.9741379)"
     style="fill:#00aa88">
    <path
       fill-rule="evenodd"
       clip-rule="evenodd"
       d="m 47.4999,17.9999 c 14.6356,0 26.5,11.8645 26.5,26.5 0,14.6354 -11.8644,26.5 -26.5,26.5 C 32.8644,70.9999 21,59.1353 21,44.4999 c 0,-14.6355 11.8644,-26.5 26.4999,-26.5 z"
       fill="#ff4361"
       id="path20501"
       style="fill:#00aa88" />
    <path
       fill-rule="evenodd"
       clip-rule="evenodd"
       d="m 47.4999,17.9999 c 14.6356,0 26.5,11.8645 26.5,26.5 0,14.6354 -11.8644,26.5 -26.5,26.5 C 32.8644,70.9999 21,59.1353 21,44.4999 c 0,-14.6355 11.8644,-26.5 26.4999,-26.5 z"
       fill="url(#paint0_linear)"
       id="path20503"
       style="fill:#00aa88" />
  </g>
  <path
     fill-rule="evenodd"
     clip-rule="evenodd"
     d="m 42.353449,6.3016603 h 9.9999 c 16.5686,0 30,13.4311637 30,29.9999637 v 10 c 0,16.568295 -13.4314,29.999895 -30,29.999895 h -9.9999 c -16.5685,0 -30.0001,-13.4316 -30.0001,-29.999895 v -10 c 0,-16.5688 13.4316,-29.9999637 30.0001,-29.9999637 z"
     fill="#FF4361"
     id="path20507"
     style="fill:#00ffcc" />
  <path
     fill-rule="evenodd"
     clip-rule="evenodd"
     d="m 42.353449,6.3016603 h 9.9999 c 16.5686,0 30,13.5081437 30,30.1719087 v 10.057315 c 0,16.663259 -13.4314,30.17185 -30,30.17185 h -9.9999 c -16.5685,0 -30.0001,-13.508591 -30.0001,-30.17185 V 36.473569 c 0,-16.663765 13.4316,-30.1719087 30.0001,-30.1719087 z"
     fill="url(#paint1_linear)"
     id="path20509"
     style="fill:url(#linearGradient24816);fill-opacity:1;stroke-width:1.00286"
     inkscape:transform-center-x="2.0689655"
     inkscape:transform-center-y="-3.7714927" />
  <defs
     id="defs20538">
    <linearGradient
       inkscape:collect="always"
       id="linearGradient24814">
      <stop
         style="stop-color:#2abda8;stop-opacity:1;"
         offset="0"
         id="stop24810" />
      <stop
         style="stop-color:#2abda8;stop-opacity:0;"
         offset="1"
         id="stop24812" />
    </linearGradient>
    <filter
       id="filter0_d"
       x="-3.05176e-05"
       y="9.99988"
       width="95"
       height="95"
       filterUnits="userSpaceOnUse"
       color-interpolation-filters="sRGB">
      <feFlood
         flood-opacity="0"
         result="BackgroundImageFix"
         id="feFlood20513" />
      <feColorMatrix
         in="SourceAlpha"
         type="matrix"
         values="0 0 0 0 0 0 0 0 0 0 0 0 0 0 0 0 0 0 127 0"
         id="feColorMatrix20515" />
      <feOffset
         dy="13"
         id="feOffset20517" />
      <feGaussianBlur
         stdDeviation="10.5"
         id="feGaussianBlur20519" />
      <feColorMatrix
         type="matrix"
         values="0 0 0 0 1 0 0 0 0 0.266667 0 0 0 0 0.341176 0 0 0 0.3 0"
         id="feColorMatrix20521" />
      <feBlend
         mode="normal"
         in2="BackgroundImageFix"
         result="effect1_dropShadow"
         id="feBlend20523" />
      <feBlend
         mode="normal"
         in="SourceGraphic"
         in2="effect1_dropShadow"
         result="shape"
         id="feBlend20525" />
    </filter>
    <linearGradient
       id="paint0_linear"
       x1="51.6351"
       y1="103.635"
       x2="106.635"
       y2="40.3649"
       gradientUnits="userSpaceOnUse">
      <stop
         stop-color="#F80759"
         id="stop20528" />
      <stop
         offset="1"
         stop-color="#BC4E9C"
         id="stop20530" />
    </linearGradient>
    <linearGradient
       id="paint1_linear"
       x1="53.4132"
       y1="113.413"
       x2="125.413"
       y2="30.5868"
       gradientUnits="userSpaceOnUse">
      <stop
         stop-color="#FF416C"
         id="stop20533" />
      <stop
         offset="1"
         stop-color="#FF4B2B"
         id="stop20535" />
    </linearGradient>
    <linearGradient
       inkscape:collect="always"
       xlink:href="#linearGradient24814"
       id="linearGradient24816"
       x1="12.353349"
       y1="41.502197"
       x2="94.508522"
       y2="-0.39435443"
       gradientUnits="userSpaceOnUse" />
  </defs>
  <g
     transform="matrix(0.0098128,0,0,-0.00837691,22.141202,62.294515)"
     fill="#000000"
     stroke="none"
     id="g24676"
     style="fill:#ffffff;fill-opacity:1">
    <path
       d="m 3955,4635 -430,-133 v -262 -262 l 435,-134 c 239,-74 436,-134 438,-134 1,0 2,82 2,183 v 183 l 44,12 c 151,40 151,264 0,304 l -44,12 v 183 c 0,101 -3,183 -7,182 -5,0 -201,-60 -438,-134 z"
       id="path24650"
       style="fill:#ffffff;fill-opacity:1" />
    <path
       d="m 720,4000 v -560 h 720 720 v 560 560 H 1440 720 Z m 845,187 c 281,-142 291,-151 269,-214 -8,-24 -48,-48 -269,-160 -143,-73 -273,-132 -288,-133 -17,0 -38,10 -52,25 l -25,24 v 271 271 l 25,24 c 14,15 35,25 52,25 15,-1 145,-60 288,-133 z"
       id="path24652"
       style="fill:#ffffff;fill-opacity:1" />
    <path
       d="m 1360,4000 v -110 l 105,52 c 58,29 105,55 105,58 0,3 -47,29 -105,58 l -105,52 z"
       id="path24654"
       style="fill:#ffffff;fill-opacity:1" />
    <path
       d="m 2960,4440 v -40 h -80 -80 v -160 -160 h 80 80 v -40 -40 h 200 200 v 240 240 h -200 -200 z"
       id="path24656"
       style="fill:#ffffff;fill-opacity:1" />
    <path
       d="m 3040,3640 v -200 h 44 c 52,0 45,-18 76,205 11,83 23,160 25,173 5,21 3,22 -70,22 h -75 z"
       id="path24658"
       style="fill:#ffffff;fill-opacity:1" />
    <path
       d="m 3347,3818 c -3,-13 -20,-129 -38,-258 -42,-301 -25,-280 -229,-280 -212,0 -200,-17 -200,265 v 215 h -280 -280 v -215 c 0,-216 0,-216 -25,-240 l -24,-25 H 1440 609 l -24,25 c -25,24 -25,24 -25,240 v 215 h -95 c -88,0 -98,-2 -120,-25 l -25,-24 V 2535 1360 h 2240 2240 v 1175 1176 l -25,24 c -22,23 -32,25 -120,25 h -95 v -95 c 0,-88 -2,-98 -25,-120 -13,-14 -34,-25 -45,-25 -12,0 -255,72 -541,160 -292,90 -536,160 -558,160 -32,0 -40,-4 -44,-22 z m 1108,-723 c 24,-23 25,-29 25,-160 v -135 h 55 c 46,0 60,-4 80,-25 l 25,-24 v -511 -511 l -25,-24 -24,-25 h -711 -711 l -24,25 c -24,23 -25,29 -25,160 v 135 h -95 c -88,0 -98,2 -120,25 l -25,24 v 511 511 l 25,24 24,25 h 751 751 z m -1760,-160 25,-24 v -671 -671 l -25,-24 -24,-25 H 1600 529 l -24,25 -25,24 v 671 671 l 25,24 24,25 h 1071 1071 z"
       id="path24660"
       style="fill:#ffffff;fill-opacity:1" />
    <path
       d="m 3040,2560 v -400 h 40 40 v 295 296 l 25,24 24,25 h 576 575 v 80 80 h -640 -640 z"
       id="path24662"
       style="fill:#ffffff;fill-opacity:1" />
    <path
       d="m 3280,2240 v -400 h 600 600 v 400 400 h -600 -600 z m 320,160 v -80 h -80 -80 v 80 80 h 80 80 z m 720,0 v -80 h -280 -280 v 80 80 h 280 280 z m -560,-320 v -80 h -160 -160 v 80 80 h 160 160 z m 560,0 v -80 h -200 -200 v 80 80 h 200 200 z"
       id="path24664"
       style="fill:#ffffff;fill-opacity:1" />
    <path
       d="m 851,2796 c 15,-15 741,-456 750,-456 9,0 668,401 734,446 16,12 -95,14 -734,14 -415,0 -752,-2 -750,-4 z"
       id="path24666"
       style="fill:#ffffff;fill-opacity:1" />
    <path
       d="m 640,2205 v -525 h 960 960 v 525 c 0,289 -3,525 -6,525 -3,0 -214,-128 -468,-285 -255,-157 -473,-285 -485,-285 -13,0 -231,128 -485,285 -255,157 -466,285 -470,285 -3,0 -6,-236 -6,-525 z"
       id="path24668"
       style="fill:#ffffff;fill-opacity:1" />
    <path
       d="m 320,1145 c 0,-46 4,-60 25,-80 l 24,-25 h 2191 2191 l 24,25 c 21,20 25,34 25,80 v 55 H 2560 320 Z"
       id="path24670"
       style="fill:#ffffff;fill-opacity:1" />
    <path
       d="M 2400,760 V 640 h 160 160 v 120 120 h -160 -160 z"
       id="path24672"
       style="fill:#ffffff;fill-opacity:1" />
    <path
       d="m 1840,400 v -80 h 720 720 v 80 80 h -720 -720 z"
       id="path24674"
       style="fill:#ffffff;fill-opacity:1" />
  </g>
</svg>
