<?xml version="1.0" encoding="UTF-8" standalone="no"?>
<svg
   width="95"
   height="104"
   viewBox="0 0 95 104"
   fill="none"
   version="1.1"
   id="svg19917"
   sodipodi:docname="performance.svg"
   inkscape:version="1.1 (c68e22c387, 2021-05-23)"
   xmlns:inkscape="http://www.inkscape.org/namespaces/inkscape"
   xmlns:sodipodi="http://sodipodi.sourceforge.net/DTD/sodipodi-0.dtd"
   xmlns:xlink="http://www.w3.org/1999/xlink"
   xmlns="http://www.w3.org/2000/svg"
   xmlns:svg="http://www.w3.org/2000/svg">
  <sodipodi:namedview
     id="namedview19919"
     pagecolor="#ffffff"
     bordercolor="#666666"
     borderopacity="1.0"
     inkscape:pageshadow="2"
     inkscape:pageopacity="0.0"
     inkscape:pagecheckerboard="0"
     showgrid="false"
     inkscape:zoom="7.8076923"
     inkscape:cx="25.039409"
     inkscape:cy="44.635468"
     inkscape:window-width="1920"
     inkscape:window-height="1001"
     inkscape:window-x="-9"
     inkscape:window-y="-9"
     inkscape:window-maximized="1"
     inkscape:current-layer="svg19917" />
  <g
     filter="url(#filter0_d)"
     id="g19882">
    <path
       fill-rule="evenodd"
       clip-rule="evenodd"
       d="M47.5 16.9999C62.1355 16.9999 73.9999 28.8644 73.9999 43.4999C73.9999 58.1353 62.1355 69.9999 47.5 69.9999C32.8644 69.9999 21 58.1353 21 43.4999C21 28.8644 32.8644 16.9999 47.5 16.9999Z"
       fill="#FF4361"
       id="path19878" />
    <path
       fill-rule="evenodd"
       clip-rule="evenodd"
       d="M47.5 16.9999C62.1355 16.9999 73.9999 28.8644 73.9999 43.4999C73.9999 58.1353 62.1355 69.9999 47.5 69.9999C32.8644 69.9999 21 58.1353 21 43.4999C21 28.8644 32.8644 16.9999 47.5 16.9999Z"
       fill="url(#paint0_linear)"
       id="path19880" />
  </g>
  <path
     fill-rule="evenodd"
     clip-rule="evenodd"
     d="M42 0.999936H51.9999C68.5685 0.999936 81.9999 14.4311 81.9999 30.9999V40.9999C81.9999 57.5682 68.5685 70.9998 51.9999 70.9998H42C25.4315 70.9998 11.9999 57.5682 11.9999 40.9999V30.9999C11.9999 14.4311 25.4315 0.999936 42 0.999936Z"
     fill="#FF4361"
     id="path19884" />
  <path
     fill-rule="evenodd"
     clip-rule="evenodd"
     d="M42 0.999936H51.9999C68.5685 0.999936 81.9999 14.4311 81.9999 30.9999V40.9999C81.9999 57.5682 68.5685 70.9998 51.9999 70.9998H42C25.4315 70.9998 11.9999 57.5682 11.9999 40.9999V30.9999C11.9999 14.4311 25.4315 0.999936 42 0.999936Z"
     fill="url(#paint1_linear)"
     id="path19886"
     style="fill-opacity:1;fill:url(#linearGradient20180)" />
  <defs
     id="defs19915">
    <linearGradient
       inkscape:collect="always"
       id="linearGradient20178">
      <stop
         style="stop-color:#ff00cc;stop-opacity:1;"
         offset="0"
         id="stop20174" />
      <stop
         style="stop-color:#e580ff;stop-opacity:1"
         offset="1"
         id="stop20176" />
    </linearGradient>
    <filter
       id="filter0_d"
       x="-3.05176e-05"
       y="8.99988"
       width="95"
       height="95"
       filterUnits="userSpaceOnUse"
       color-interpolation-filters="sRGB">
      <feFlood
         flood-opacity="0"
         result="BackgroundImageFix"
         id="feFlood19890" />
      <feColorMatrix
         in="SourceAlpha"
         type="matrix"
         values="0 0 0 0 0 0 0 0 0 0 0 0 0 0 0 0 0 0 127 0"
         id="feColorMatrix19892" />
      <feOffset
         dy="13"
         id="feOffset19894" />
      <feGaussianBlur
         stdDeviation="10.5"
         id="feGaussianBlur19896" />
      <feColorMatrix
         type="matrix"
         values="0 0 0 0 0.898039 0 0 0 0 0.117647 0 0 0 0 0.435294 0 0 0 0.3 0"
         id="feColorMatrix19898" />
      <feBlend
         mode="normal"
         in2="BackgroundImageFix"
         result="effect1_dropShadow"
         id="feBlend19900" />
      <feBlend
         mode="normal"
         in="SourceGraphic"
         in2="effect1_dropShadow"
         result="shape"
         id="feBlend19902" />
    </filter>
    <linearGradient
       id="paint0_linear"
       x1="51.6351"
       y1="102.635"
       x2="106.635"
       y2="39.3649"
       gradientUnits="userSpaceOnUse">
      <stop
         stop-color="#F80759"
         id="stop19905" />
      <stop
         offset="1"
         stop-color="#BC4E9C"
         id="stop19907" />
    </linearGradient>
    <linearGradient
       id="paint1_linear"
       x1="52.4132"
       y1="113.413"
       x2="124.413"
       y2="30.5868"
       gradientUnits="userSpaceOnUse"
       xlink:href="#paint0_linear">
      <stop
         stop-color="#F80759"
         id="stop19910" />
      <stop
         offset="1"
         stop-color="#BC4E9C"
         id="stop19912" />
    </linearGradient>
    <linearGradient
       inkscape:collect="always"
       xlink:href="#linearGradient20178"
       id="linearGradient20180"
       x1="11.014778"
       y1="35.605911"
       x2="81.586205"
       y2="35.349754"
       gradientUnits="userSpaceOnUse" />
  </defs>
  <g
     transform="matrix(0.00765459,0,0,-0.00920932,26.373637,57.453148)"
     fill="#000000"
     stroke="none"
     id="g20282"
     style="fill:#ffffff;fill-opacity:1">
    <path
       d="M 800,4766 C 414,4684 124,4405 27,4020 -4,3898 -3,3681 28,3556 c 46,-182 142,-347 280,-477 285,-270 697,-348 1061,-200 310,126 534,408 597,752 l 18,94 12,-80 c 15,-103 27,-148 69,-244 206,-483 771,-720 1264,-531 291,112 517,366 603,678 18,63 22,106 22,242 1,143 -2,176 -22,250 -94,343 -350,605 -688,705 -121,37 -330,46 -454,21 -240,-49 -441,-168 -585,-348 -123,-155 -212,-368 -216,-523 -1,-29 -7,-10 -24,70 -28,133 -54,207 -101,294 -133,244 -346,414 -614,491 -96,28 -350,37 -450,16 z m 285,-580 c 202,-48 338,-250 305,-453 -11,-63 -57,-165 -93,-205 -107,-116 -273,-165 -417,-122 -132,39 -246,155 -280,283 -15,59 -13,175 4,232 39,126 144,225 276,261 80,21 128,22 205,4 z m 1966,4 c 257,-49 401,-343 282,-577 -34,-68 -110,-146 -171,-177 -273,-137 -592,57 -592,358 0,120 42,218 124,294 99,91 224,127 357,102 z"
       id="path20276"
       style="fill:#ffffff;fill-opacity:1" />
    <path
       d="m 1571,2774 c -74,-46 -185,-91 -300,-122 -84,-22 -117,-25 -266,-26 -106,-1 -192,4 -230,12 -88,19 -212,60 -266,87 l -47,24 -38,-28 c -102,-74 -173,-188 -194,-309 -7,-47 -10,-313 -8,-872 3,-797 3,-806 25,-862 60,-157 171,-264 332,-319 52,-18 110,-19 1406,-19 1296,0 1354,1 1406,19 93,31 141,61 204,125 74,74 111,138 136,235 18,70 19,119 19,845 0,490 -4,795 -11,836 -19,122 -103,255 -204,327 l -31,21 -67,-29 c -313,-133 -652,-131 -952,6 -40,18 -90,45 -111,59 l -39,26 -355,-1 -355,-1 z"
       id="path20278"
       style="fill:#ffffff;fill-opacity:1" />
    <path
       d="m 4794,2557 c -34,-17 -244,-138 -467,-267 l -406,-235 -1,-487 v -487 l 118,-70 c 64,-38 270,-158 457,-267 l 340,-198 72,-1 c 63,0 76,3 114,30 23,17 52,48 64,71 22,41 22,45 29,907 8,951 10,905 -52,970 -71,75 -167,88 -268,34 z"
       id="path20280"
       style="fill:#ffffff;fill-opacity:1" />
  </g>
</svg>
