<?xml version="1.0" encoding="UTF-8" standalone="no"?>
<svg
   width="95"
   height="104"
   viewBox="0 0 95 104"
   fill="none"
   version="1.1"
   id="svg25084"
   sodipodi:docname="subscription.svg"
   inkscape:version="1.1 (c68e22c387, 2021-05-23)"
   xmlns:inkscape="http://www.inkscape.org/namespaces/inkscape"
   xmlns:sodipodi="http://sodipodi.sourceforge.net/DTD/sodipodi-0.dtd"
   xmlns:xlink="http://www.w3.org/1999/xlink"
   xmlns="http://www.w3.org/2000/svg"
   xmlns:svg="http://www.w3.org/2000/svg">
  <sodipodi:namedview
     id="namedview25086"
     pagecolor="#ffffff"
     bordercolor="#666666"
     borderopacity="1.0"
     inkscape:pageshadow="2"
     inkscape:pageopacity="0.0"
     inkscape:pagecheckerboard="0"
     showgrid="false"
     inkscape:zoom="5.5208722"
     inkscape:cx="9.3282363"
     inkscape:cy="32.69411"
     inkscape:window-width="1920"
     inkscape:window-height="1001"
     inkscape:window-x="-9"
     inkscape:window-y="-9"
     inkscape:window-maximized="1"
     inkscape:current-layer="svg25084" />
  <g
     filter="url(#filter0_d)"
     id="g25054"
     style="fill:#0088aa">
    <path
       fill-rule="evenodd"
       clip-rule="evenodd"
       d="M47.4999 16.9999C62.1354 16.9999 74 28.8644 74 43.4999C74 58.1353 62.1354 69.9999 47.4999 69.9999C32.8644 69.9999 21 58.1353 21 43.4999C21 28.8644 32.8644 16.9999 47.4999 16.9999Z"
       fill="#FF4361"
       id="path25052"
       style="fill:#0088aa" />
  </g>
  <path
     fill-rule="evenodd"
     clip-rule="evenodd"
     d="m 42.256058,8.0442709 h 10.0001 c 16.5685,0 30,13.4311641 30,29.9999641 v 10 c 0,16.5683 -13.4315,29.9999 -30,29.9999 h -10.0001 c -16.5685,0 -30,-13.4316 -30,-29.9999 v -10 c 0,-16.5688 13.4315,-29.9999641 30,-29.9999641 z"
     fill="#FF4361"
     id="path25056"
     style="fill:#00ccff" />
  <path
     fill-rule="evenodd"
     clip-rule="evenodd"
     d="m 42.256058,8.0442709 h 10.0001 c 16.5685,0 30,13.4311641 30,29.9999641 v 10 c 0,16.5683 -13.4315,29.9999 -30,29.9999 h -10.0001 c -16.5685,0 -30,-13.4316 -30,-29.9999 v -10 c 0,-16.5688 13.4315,-29.9999641 30,-29.9999641 z"
     fill="url(#paint0_linear)"
     id="path25058"
     style="fill:url(#linearGradient25347);fill-opacity:1" />
  <defs
     id="defs25082">
    <linearGradient
       inkscape:collect="always"
       id="linearGradient25345">
      <stop
         style="stop-color:#2a7fff;stop-opacity:1;"
         offset="0"
         id="stop25341" />
      <stop
         style="stop-color:#2a7fff;stop-opacity:0;"
         offset="1"
         id="stop25343" />
    </linearGradient>
    <filter
       id="filter0_d"
       x="1.14441e-05"
       y="8.99988"
       width="95"
       height="95"
       filterUnits="userSpaceOnUse"
       color-interpolation-filters="sRGB">
      <feFlood
         flood-opacity="0"
         result="BackgroundImageFix"
         id="feFlood25062" />
      <feColorMatrix
         in="SourceAlpha"
         type="matrix"
         values="0 0 0 0 0 0 0 0 0 0 0 0 0 0 0 0 0 0 127 0"
         id="feColorMatrix25064" />
      <feOffset
         dy="13"
         id="feOffset25066" />
      <feGaussianBlur
         stdDeviation="10.5"
         id="feGaussianBlur25068" />
      <feColorMatrix
         type="matrix"
         values="0 0 0 0 0.992157 0 0 0 0 0.345098 0 0 0 0 0.447059 0 0 0 0.3 0"
         id="feColorMatrix25070" />
      <feBlend
         mode="normal"
         in2="BackgroundImageFix"
         result="effect1_dropShadow"
         id="feBlend25072" />
      <feBlend
         mode="normal"
         in="SourceGraphic"
         in2="effect1_dropShadow"
         result="shape"
         id="feBlend25074" />
    </filter>
    <linearGradient
       id="paint0_linear"
       x1="52.4132"
       y1="113.413"
       x2="124.413"
       y2="30.5868"
       gradientUnits="userSpaceOnUse">
      <stop
         stop-color="#FF5858"
         id="stop25077" />
      <stop
         offset="1"
         stop-color="#F857A6"
         id="stop25079" />
    </linearGradient>
    <linearGradient
       inkscape:collect="always"
       xlink:href="#linearGradient25345"
       id="linearGradient25347"
       x1="12.256058"
       y1="43.044203"
       x2="82.256158"
       y2="43.044203"
       gradientUnits="userSpaceOnUse" />
  </defs>
  <g
     transform="matrix(0.00818375,0,0,-0.00859265,24.805874,64.227506)"
     fill="#000000"
     stroke="none"
     id="g25367"
     style="fill:#ffffff;fill-opacity:1">
    <path
       d="m 1346,4870 c -63,-16 -153,-70 -197,-117 -22,-24 -55,-74 -72,-111 -29,-61 -32,-76 -32,-163 0,-90 2,-99 37,-171 45,-91 103,-147 196,-191 61,-29 76,-32 162,-32 86,0 101,3 162,32 93,44 151,100 196,191 35,72 37,81 37,172 0,91 -2,100 -37,172 -68,136 -188,217 -336,224 -42,2 -94,-1 -116,-6 z"
       id="path25349"
       style="fill:#ffffff;fill-opacity:1" />
    <path
       d="M 1795,3680 675,2560 l 512,-512 511,-511 64,29 63,29 270,3 270,3 938,937 937,937 v 422 423 h -90 c -75,0 -90,-3 -90,-16 0,-27 -101,-119 -146,-132 -94,-28 -169,-8 -239,63 -102,101 -102,229 0,330 70,71 145,91 239,63 45,-13 146,-105 146,-132 0,-13 15,-16 90,-16 h 90 v 160 160 h -663 -662 z m 1361,612 c 22,-11 51,-32 64,-45 21,-22 30,-24 81,-20 71,7 142,-15 196,-62 43,-37 83,-109 83,-150 0,-18 9,-29 33,-41 45,-23 95,-72 120,-119 28,-53 30,-164 3,-217 -18,-37 -18,-39 0,-75 27,-54 25,-164 -3,-219 -24,-44 -75,-94 -123,-119 -21,-11 -30,-23 -30,-40 0,-41 -40,-113 -83,-150 -54,-47 -125,-69 -196,-62 -51,4 -60,2 -81,-20 -46,-48 -99,-68 -180,-68 -81,0 -134,20 -180,68 -21,22 -30,24 -81,20 -71,-7 -142,15 -196,62 -43,37 -83,109 -83,150 0,17 -9,29 -30,40 -48,25 -99,75 -123,119 -28,55 -30,165 -3,219 18,36 18,38 0,75 -26,50 -25,163 0,212 25,48 74,98 119,121 28,15 37,26 37,44 0,41 40,113 83,150 55,47 124,69 198,62 41,-3 61,-1 67,7 12,20 66,56 108,72 52,19 148,13 200,-14 z m -1076,-977 95,-95 -58,-57 -57,-58 -97,97 -98,98 55,55 c 30,30 57,55 60,55 3,0 48,-43 100,-95 z m 447,-447 c 134,-134 243,-247 243,-253 0,-13 -92,-105 -105,-105 -5,0 -120,110 -255,245 l -245,245 55,55 c 30,30 57,55 60,55 2,0 114,-109 247,-242 z m -390,-90 c 172,-172 313,-317 313,-323 0,-13 -92,-105 -105,-105 -5,0 -152,142 -325,315 l -315,315 55,55 c 30,30 57,55 60,55 3,0 146,-141 317,-312 z m -697,177 55,-55 -235,-235 c -129,-129 -239,-235 -245,-235 -13,0 -105,92 -105,105 0,10 460,475 470,475 3,0 30,-25 60,-55 z m 240,-240 55,-55 -235,-235 c -129,-129 -239,-235 -245,-235 -13,0 -105,92 -105,105 0,10 460,475 470,475 3,0 30,-25 60,-55 z m 240,-240 55,-55 -235,-235 c -129,-129 -239,-235 -245,-235 -13,0 -105,92 -105,105 0,10 460,475 470,475 3,0 30,-25 60,-55 z m 240,-240 55,-55 -235,-235 c -129,-129 -239,-235 -245,-235 -13,0 -105,92 -105,105 0,10 460,475 470,475 3,0 30,-25 60,-55 z m 242,-232 c 26,-26 48,-52 48,-58 0,-6 -52,-62 -115,-125 l -115,-115 -57,58 -58,57 115,115 c 63,63 119,115 124,115 6,0 32,-21 58,-47 z"
       id="path25351"
       style="fill:#ffffff;fill-opacity:1" />
    <path
       d="m 2990,4148 c -14,-7 -33,-29 -42,-48 -10,-19 -25,-41 -35,-47 -22,-17 -72,-16 -103,2 -39,23 -85,18 -120,-11 -29,-25 -30,-30 -28,-90 2,-55 -1,-67 -22,-89 -14,-15 -34,-25 -52,-25 -92,0 -142,-100 -80,-158 63,-59 65,-96 7,-155 -21,-22 -35,-46 -35,-61 0,-60 46,-106 108,-106 31,0 71,-31 73,-58 1,-9 1,-40 -1,-68 -1,-46 1,-53 30,-77 35,-30 80,-35 120,-12 31,18 81,19 103,3 10,-7 25,-29 35,-48 22,-44 56,-62 107,-56 41,5 85,42 85,71 0,39 82,57 130,30 40,-23 85,-18 120,12 29,24 31,31 30,77 -2,28 -2,59 -1,68 2,27 42,58 73,58 62,0 108,46 108,106 0,15 -14,38 -35,60 -58,57 -56,97 7,156 62,58 12,158 -81,158 -31,0 -70,32 -72,58 -1,9 -1,40 1,68 1,46 -1,53 -30,77 -35,30 -80,35 -120,12 -48,-27 -130,-9 -130,30 0,8 -10,26 -23,40 -26,31 -89,42 -127,23 z"
       id="path25353"
       style="fill:#ffffff;fill-opacity:1" />
    <path
       d="m 3785,4455 c -16,-15 -25,-36 -25,-55 0,-33 38,-80 65,-80 12,0 15,15 15,80 0,90 -11,100 -55,55 z"
       id="path25355"
       style="fill:#ffffff;fill-opacity:1" />
    <path
       d="m 4400,4160 v -161 l 149,3 c 133,3 153,5 177,24 53,39 69,71 69,134 0,63 -16,95 -69,134 -24,19 -44,21 -177,24 l -149,3 z"
       id="path25357"
       style="fill:#ffffff;fill-opacity:1" />
    <path
       d="m 4180,2935 -75,-75 58,-57 57,-58 75,75 c 41,41 75,79 75,85 0,13 -92,105 -106,105 -5,0 -43,-34 -84,-75 z"
       id="path25359"
       style="fill:#ffffff;fill-opacity:1" />
    <path
       d="m 3685,2440 -300,-300 58,-57 57,-58 300,300 300,300 -58,58 -57,57 z"
       id="path25361"
       style="fill:#ffffff;fill-opacity:1" />
    <path
       d="m 3165,1664 c -123,-20 -245,-66 -396,-149 l -137,-75 h -372 c -263,0 -385,-4 -414,-12 -86,-26 -166,-136 -166,-228 0,-92 80,-202 166,-228 29,-8 155,-12 433,-12 h 392 l 24,-25 c 16,-15 25,-36 25,-55 0,-19 -9,-40 -25,-55 l -24,-25 h -545 -546 l -475,238 -476,237 h -77 c -66,0 -84,-4 -124,-28 -83,-49 -124,-149 -98,-241 26,-93 29,-96 594,-378 286,-143 546,-270 576,-282 55,-21 59,-21 1318,-24 l 1262,-2 v 542 543 l -77,57 c -239,177 -548,251 -838,202 z"
       id="path25363"
       style="fill:#ffffff;fill-opacity:1" />
    <path
       d="M 4240,960 V 320 h 280 280 v 640 640 h -280 -280 z m 364,-199 c 26,-27 31,-39 31,-81 0,-43 -5,-54 -33,-82 -28,-28 -39,-33 -82,-33 -43,0 -54,5 -82,33 -28,28 -33,39 -33,81 0,52 25,92 70,112 37,16 96,3 129,-30 z"
       id="path25365"
       style="fill:#ffffff;fill-opacity:1" />
  </g>
</svg>
