<?xml version="1.0" encoding="UTF-8" standalone="no"?>
<svg
   width="95"
   height="105"
   viewBox="0 0 95 105"
   fill="none"
   version="1.1"
   id="svg25589"
   sodipodi:docname="support.svg"
   inkscape:version="1.1 (c68e22c387, 2021-05-23)"
   xmlns:inkscape="http://www.inkscape.org/namespaces/inkscape"
   xmlns:sodipodi="http://sodipodi.sourceforge.net/DTD/sodipodi-0.dtd"
   xmlns:xlink="http://www.w3.org/1999/xlink"
   xmlns="http://www.w3.org/2000/svg"
   xmlns:svg="http://www.w3.org/2000/svg">
  <sodipodi:namedview
     id="namedview25591"
     pagecolor="#ffffff"
     bordercolor="#666666"
     borderopacity="1.0"
     inkscape:pageshadow="2"
     inkscape:pageopacity="0.0"
     inkscape:pagecheckerboard="0"
     showgrid="false"
     inkscape:zoom="7.7333333"
     inkscape:cx="57.349138"
     inkscape:cy="42.090517"
     inkscape:window-width="1920"
     inkscape:window-height="1001"
     inkscape:window-x="-9"
     inkscape:window-y="-9"
     inkscape:window-maximized="1"
     inkscape:current-layer="svg25589" />
  <g
     filter="url(#filter0_d)"
     id="g25554">
    <path
       fill-rule="evenodd"
       clip-rule="evenodd"
       d="M47.4999 17.9999C62.1354 17.9999 73.9999 29.8644 73.9999 44.4999C73.9999 59.1353 62.1354 70.9999 47.4999 70.9999C32.8644 70.9999 20.9999 59.1353 20.9999 44.4999C20.9999 29.8644 32.8644 17.9999 47.4999 17.9999Z"
       fill="#FF4361"
       id="path25550" />
    <path
       fill-rule="evenodd"
       clip-rule="evenodd"
       d="M47.4999 17.9999C62.1354 17.9999 73.9999 29.8644 73.9999 44.4999C73.9999 59.1353 62.1354 70.9999 47.4999 70.9999C32.8644 70.9999 20.9999 59.1353 20.9999 44.4999C20.9999 29.8644 32.8644 17.9999 47.4999 17.9999Z"
       fill="url(#paint0_linear)"
       id="path25552" />
  </g>
  <path
     fill-rule="evenodd"
     clip-rule="evenodd"
     d="M42.9999 0.999936H53C69.5685 0.999936 83 14.4311 83 30.9999V40.9999C83 57.5682 69.5685 70.9998 53 70.9998H42.9999C26.4314 70.9998 12.9999 57.5682 12.9999 40.9999V30.9999C12.9999 14.4311 26.4314 0.999936 42.9999 0.999936Z"
     fill="#FF4361"
     id="path25556"
     style="fill:#ff0066" />
  <path
     fill-rule="evenodd"
     clip-rule="evenodd"
     d="M 42.9999,0.999936 H 53 c 16.5685,0 30,13.431164 30,29.999964 v 10 C 83,57.5682 69.5685,70.9998 53,70.9998 H 42.9999 c -16.5685,0 -30.000001,-13.4316 -30.000001,-29.9999 v -10 C 12.999899,14.4311 26.4314,0.999936 42.9999,0.999936 Z"
     fill="url(#paint1_linear)"
     id="path25558"
     style="fill:url(#linearGradient26096);fill-opacity:1" />
  <defs
     id="defs25587">
    <linearGradient
       inkscape:collect="always"
       id="linearGradient26094">
      <stop
         style="stop-color:#ff8080;stop-opacity:1;"
         offset="0"
         id="stop26090" />
      <stop
         style="stop-color:#ff8080;stop-opacity:0;"
         offset="1"
         id="stop26092" />
    </linearGradient>
    <filter
       id="filter0_d"
       x="-9.91821e-05"
       y="9.99988"
       width="95"
       height="95"
       filterUnits="userSpaceOnUse"
       color-interpolation-filters="sRGB">
      <feFlood
         flood-opacity="0"
         result="BackgroundImageFix"
         id="feFlood25562" />
      <feColorMatrix
         in="SourceAlpha"
         type="matrix"
         values="0 0 0 0 0 0 0 0 0 0 0 0 0 0 0 0 0 0 127 0"
         id="feColorMatrix25564" />
      <feOffset
         dy="13"
         id="feOffset25566" />
      <feGaussianBlur
         stdDeviation="10.5"
         id="feGaussianBlur25568" />
      <feColorMatrix
         type="matrix"
         values="0 0 0 0 0.94902 0 0 0 0 0.501961 0 0 0 0 0.27451 0 0 0 0.3 0"
         id="feColorMatrix25570" />
      <feBlend
         mode="normal"
         in2="BackgroundImageFix"
         result="effect1_dropShadow"
         id="feBlend25572" />
      <feBlend
         mode="normal"
         in="SourceGraphic"
         in2="effect1_dropShadow"
         result="shape"
         id="feBlend25574" />
    </filter>
    <linearGradient
       id="paint0_linear"
       x1="51.6351"
       y1="103.635"
       x2="106.635"
       y2="40.3649"
       gradientUnits="userSpaceOnUse">
      <stop
         stop-color="#F80759"
         id="stop25577" />
      <stop
         offset="1"
         stop-color="#BC4E9C"
         id="stop25579" />
    </linearGradient>
    <linearGradient
       id="paint1_linear"
       x1="53.4132"
       y1="113.413"
       x2="125.413"
       y2="30.5868"
       gradientUnits="userSpaceOnUse">
      <stop
         stop-color="#F46B45"
         id="stop25582" />
      <stop
         offset="1"
         stop-color="#EEA849"
         id="stop25584" />
    </linearGradient>
    <linearGradient
       inkscape:collect="always"
       xlink:href="#linearGradient26094"
       id="linearGradient26096"
       x1="12.999899"
       y1="35.999868"
       x2="83"
       y2="35.999868"
       gradientUnits="userSpaceOnUse" />
  </defs>
  <g
     transform="matrix(0.0072426,0,0,-0.00759108,29.621543,53.087733)"
     fill="#000000"
     stroke="none"
     id="g26102"
     style="fill:#fefefe;fill-opacity:1">
    <path
       d="m 2060,4529 c -44,-27 -38,-19 -198,-286 l -133,-223 h -224 -225 v 73 c 0,89 -21,129 -83,157 -38,18 -68,20 -337,20 -287,0 -297,-1 -340,-22 -58,-31 -80,-73 -80,-159 v -66 l -74,-6 C 264,4008 191,3978 127,3920 63,3862 26,3796 10,3715 2,3672 0,3270 2,2255 L 5,855 36,790 C 75,707 137,645 220,606 l 65,-31 h 2275 2275 l 65,31 c 83,39 145,101 184,184 l 31,65 3,1400 c 2,1015 0,1417 -8,1460 -7,33 -24,82 -38,108 -35,66 -120,141 -190,169 l -57,23 -717,3 -718,3 -126,212 c -162,272 -162,272 -205,296 -36,20 -51,21 -500,21 -456,0 -465,0 -499,-21 z M 4585,3527 c 46,-29 68,-65 73,-121 3,-41 -1,-58 -20,-86 -45,-67 -61,-70 -356,-70 -291,0 -312,4 -354,62 -60,85 -12,202 93,228 19,5 147,8 284,7 223,-2 253,-4 280,-20 z M 2690,3345 c 361,-34 709,-298 852,-647 58,-142 72,-226 72,-408 0,-147 -3,-176 -27,-264 -97,-360 -377,-648 -731,-750 -571,-166 -1167,172 -1323,750 -24,88 -27,117 -27,264 0,182 14,266 72,408 148,360 497,618 886,652 80,7 97,7 226,-5 z"
       id="path26098"
       style="fill:#fefefe;fill-opacity:1" />
    <path
       d="m 2478,3029 c -362,-41 -635,-331 -655,-694 -16,-299 146,-576 412,-705 118,-57 190,-73 325,-73 135,0 207,16 325,73 368,178 520,632 335,1000 -136,270 -440,434 -742,399 z"
       id="path26100"
       style="fill:#fefefe;fill-opacity:1" />
  </g>
</svg>
