<?xml version="1.0" encoding="UTF-8" standalone="no"?>
<svg
   width="57"
   height="57"
   viewBox="0 0 57 57"
   fill="none"
   version="1.1"
   id="svg50"
   sodipodi:docname="secure.svg"
   inkscape:version="1.1 (c68e22c387, 2021-05-23)"
   xmlns:inkscape="http://www.inkscape.org/namespaces/inkscape"
   xmlns:sodipodi="http://sodipodi.sourceforge.net/DTD/sodipodi-0.dtd"
   xmlns:xlink="http://www.w3.org/1999/xlink"
   xmlns="http://www.w3.org/2000/svg"
   xmlns:svg="http://www.w3.org/2000/svg">
  <sodipodi:namedview
     id="namedview52"
     pagecolor="#ffffff"
     bordercolor="#666666"
     borderopacity="1.0"
     inkscape:pageshadow="2"
     inkscape:pageopacity="0.43529412"
     inkscape:pagecheckerboard="0"
     showgrid="false"
     inkscape:zoom="7.2407734"
     inkscape:cx="47.992111"
     inkscape:cy="10.012743"
     inkscape:window-width="1920"
     inkscape:window-height="1001"
     inkscape:window-x="-9"
     inkscape:window-y="-9"
     inkscape:window-maximized="1"
     inkscape:current-layer="svg50" />
  <path
     fill-rule="evenodd"
     clip-rule="evenodd"
     d="m 24.396006,0.79161598 h 7.9167 c 13.1167,0 23.75,10.63298402 23.75,23.74998402 v 7.9167 c 0,13.1165 -10.6333,23.7499 -23.75,23.7499 h -7.9167 c -13.1167,0 -23.74992691,-10.6334 -23.74992691,-23.7499 v -7.9167 c 0,-13.117 10.63322691,-23.74998402 23.74992691,-23.74998402 z"
     fill="url(#paint0_linear)"
     id="path39"
     style="opacity:1;fill:url(#radialGradient11121);fill-opacity:1;fill-rule:evenodd"
     inkscape:transform-center-y="-1.6015326" />
  <defs
     id="defs48">
    <linearGradient
       inkscape:collect="always"
       id="linearGradient11117">
      <stop
         style="stop-color:#d400aa;stop-opacity:1;"
         offset="0"
         id="stop11113" />
      <stop
         style="stop-color:#f42b7c;stop-opacity:0.95951414"
         offset="1"
         id="stop11115" />
    </linearGradient>
    <linearGradient
       id="paint0_linear-6"
       x1="32.7855"
       y1="89.7855"
       x2="89.7855"
       y2="24.2145"
       gradientUnits="userSpaceOnUse">
      <stop
         stop-color="#FF416C"
         id="stop7364" />
      <stop
         offset="1"
         stop-color="#FF4B2B"
         id="stop7366" />
    </linearGradient>
    <linearGradient
       id="paint0_linear"
       x1="32.7855"
       y1="89.7855"
       x2="89.7855"
       y2="24.2145"
       gradientUnits="userSpaceOnUse">
      <stop
         stop-color="#FF416C"
         id="stop2033" />
      <stop
         offset="1"
         stop-color="#FF4B2B"
         id="stop2035" />
    </linearGradient>
    <linearGradient
       id="paint0_linear-6-8"
       x1="32.7855"
       y1="89.7855"
       x2="89.7855"
       y2="24.2145"
       gradientUnits="userSpaceOnUse">
      <stop
         stop-color="#FF416C"
         id="stop43" />
      <stop
         offset="1"
         stop-color="#FF4B2B"
         id="stop45" />
    </linearGradient>
    <radialGradient
       inkscape:collect="always"
       xlink:href="#linearGradient11117"
       id="radialGradient11121"
       cx="28.499987"
       cy="28.499908"
       fx="28.499987"
       fy="28.499908"
       r="27.708313"
       gradientTransform="translate(-0.14559392,2.2080345e-5)"
       gradientUnits="userSpaceOnUse" />
  </defs>
  <g
     id="svgg">
    <path
       id="path0"
       d=""
       stroke="none"
       fill="#fcfcfc"
       fill-rule="evenodd" />
    <path
       id="path1"
       d=""
       stroke="none"
       fill="#100fcfc"
       fill-rule="evenodd" />
    <path
       id="path2"
       d=""
       stroke="none"
       fill="#100fcfc"
       fill-rule="evenodd" />
    <path
       id="path3"
       d=""
       stroke="none"
       fill="#100fcfc"
       fill-rule="evenodd" />
    <path
       id="path4"
       d=""
       stroke="none"
       fill="#100fcfc"
       fill-rule="evenodd" />
  </g>
  <g
     id="svgg-9"
     style="fill:#3dffff;fill-opacity:1">
    <path
       id="path0-2"
       d=""
       stroke="none"
       fill="#fcfcfc"
       fill-rule="evenodd"
       style="fill:#3dffff;fill-opacity:1" />
    <path
       id="path1-4"
       d=""
       stroke="none"
       fill="#100fcfc"
       fill-rule="evenodd"
       style="fill:#3dffff;fill-opacity:1" />
    <path
       id="path2-8"
       d=""
       stroke="none"
       fill="#100fcfc"
       fill-rule="evenodd"
       style="fill:#3dffff;fill-opacity:1" />
    <path
       id="path3-2"
       d=""
       stroke="none"
       fill="#100fcfc"
       fill-rule="evenodd"
       style="fill:#3dffff;fill-opacity:1" />
    <path
       id="path4-3"
       d=""
       stroke="none"
       fill="#100fcfc"
       fill-rule="evenodd"
       style="fill:#3dffff;fill-opacity:1" />
  </g>
  <g
     transform="matrix(0.00694139,0,0,-0.00666729,11.709175,46.183571)"
     fill="#000000"
     stroke="none"
     id="g17376"
     style="fill:#ffffff;fill-opacity:1">
    <path
       d="m 745,4855 -25,-24 v -511 -511 l 25,-24 24,-25 h 296 295 V 3520 3280 H 888 c -437,0 -476,-2 -513,-19 -75,-34 -134,-117 -135,-189 0,-18 65,-555 145,-1193 C 542,622 534,671 605,612 c 58,-47 90,-52 366,-52 h 254 l 242,-162 c 224,-149 245,-160 268,-150 l 25,12 v 150 150 h 1321 c 1013,0 1331,3 1362,12 62,19 122,82 140,148 9,30 79,573 158,1205 159,1283 153,1197 81,1277 -51,57 -101,78 -189,78 h -73 v -370 -370 l -194,-388 c -207,-413 -224,-439 -303,-461 -23,-7 -169,-11 -370,-11 h -333 v 80 80 h 215 215 l -175,350 -175,350 v 370 370 h -960 -960 v 240 240 h 295 296 l 24,25 c 25,24 25,24 25,240 v 215 h 1120 1120 v 216 c 0,257 -5,279 -75,349 -68,69 -94,75 -325,75 -231,0 -257,-6 -325,-75 -66,-65 -75,-99 -75,-269 v -136 h -720 -720 v 215 c 0,216 0,216 -25,240 l -24,25 H 1440 769 Z m 754,-325 c 242,-120 256,-132 256,-210 0,-78 -14,-90 -258,-211 -194,-97 -227,-110 -260,-106 -21,3 -49,13 -63,22 -48,31 -54,66 -54,297 0,183 3,218 18,248 19,38 71,70 114,70 14,0 126,-49 247,-110 z M 2634,3108 c 55,-16 138,-99 154,-154 8,-28 12,-127 12,-303 0,-214 2,-261 14,-261 7,0 45,-16 83,-35 86,-43 144,-103 186,-193 29,-61 32,-76 32,-162 0,-86 -3,-101 -32,-162 -42,-90 -100,-150 -186,-193 -38,-19 -76,-35 -83,-35 -12,0 -14,-47 -14,-261 0,-176 -4,-275 -12,-303 -16,-55 -99,-138 -154,-154 -94,-28 -168,-8 -240,63 -31,31 -54,64 -59,83 -16,77 -298,245 -538,321 -53,17 -102,31 -107,31 -6,0 -10,-121 -10,-335 V 720 h -232 -233 l -79,359 -79,358 -97,5 c -81,4 -108,10 -161,35 -94,44 -152,101 -196,191 l -38,76 v 256 256 l 37,76 c 45,91 103,147 196,191 l 67,32 310,6 c 374,8 475,23 700,106 209,77 446,229 460,295 9,41 99,130 145,145 48,15 105,15 154,1 z M 4480,1440 v -80 h -560 -560 v 80 80 h 560 560 z m 0,-320 v -80 h -560 -560 v 80 80 h 560 560 z M 3520,800 v -80 h -80 -80 v 80 80 h 80 80 z m 320,0 v -80 h -80 -80 v 80 80 h 80 80 z m 320,0 v -80 h -80 -80 v 80 80 h 80 80 z m 320,0 v -80 h -80 -80 v 80 80 h 80 80 z"
       id="path17356"
       style="fill:#ffffff;fill-opacity:1" />
    <path
       d="m 2505,2935 -25,-24 v -911 -911 l 25,-24 c 15,-16 36,-25 55,-25 19,0 40,9 55,25 l 25,24 v 911 911 l -25,24 c -15,16 -36,25 -55,25 -19,0 -40,-9 -55,-25 z"
       id="path17358"
       style="fill:#ffffff;fill-opacity:1" />
    <path
       d="m 2275,2691 c -176,-125 -491,-241 -735,-270 -52,-7 -114,-14 -137,-17 l -43,-5 v -399 -399 l 43,-5 c 189,-23 244,-31 329,-52 180,-43 412,-144 544,-235 l 44,-30 v 721 c 0,396 -1,720 -2,720 -2,-1 -21,-14 -43,-29 z"
       id="path17360"
       style="fill:#ffffff;fill-opacity:1" />
    <path
       d="m 882,2387 c -57,-21 -142,-104 -142,-139 0,-5 68,-8 150,-8 h 150 v -80 -80 H 880 720 v -80 -80 h 160 160 v -80 -80 H 890 c -82,0 -150,-2 -150,-5 0,-19 35,-68 70,-97 56,-49 98,-58 254,-58 h 136 v 400 400 l -142,-1 c -83,0 -157,-5 -176,-12 z"
       id="path17362"
       style="fill:#ffffff;fill-opacity:1" />
    <path
       d="m 2800,2000 c 0,-121 2,-220 5,-220 19,0 68,35 97,70 55,63 71,140 46,221 -17,60 -103,149 -143,149 -3,0 -5,-99 -5,-220 z"
       id="path17364"
       style="fill:#ffffff;fill-opacity:1" />
    <path
       d="m 1223,1424 c 3,-10 32,-137 63,-281 l 58,-263 h 88 88 v 269 c 0,245 -2,269 -17,275 -10,4 -78,10 -151,13 -129,6 -134,5 -129,-13 z"
       id="path17366"
       style="fill:#ffffff;fill-opacity:1" />
    <path
       d="m 3600,4000 v -80 h 400 400 v 80 80 h -400 -400 z"
       id="path17368"
       style="fill:#ffffff;fill-opacity:1" />
    <path
       d="m 3600,3200 v -560 h 160 160 v 560 560 h -160 -160 z"
       id="path17370"
       style="fill:#ffffff;fill-opacity:1" />
    <path
       d="m 4080,3200 v -560 h 160 160 v 560 560 h -160 -160 z"
       id="path17372"
       style="fill:#ffffff;fill-opacity:1" />
    <path
       d="m 3807,2168 c 87,-172 166,-317 176,-323 12,-7 22,-7 35,0 9,6 88,151 175,323 l 157,312 h -350 -350 z"
       id="path17374"
       style="fill:#ffffff;fill-opacity:1" />
  </g>
</svg>
