<?xml version="1.0" standalone="no"?>
<!DOCTYPE svg PUBLIC "-//W3C//DTD SVG 20010904//EN"
 "http://www.w3.org/TR/2001/REC-SVG-20010904/DTD/svg10.dtd">
<svg version="1.0" xmlns="http://www.w3.org/2000/svg"
 width="512.000000pt" height="512.000000pt" viewBox="0 0 512.000000 512.000000"
 preserveAspectRatio="xMidYMid meet">
<metadata>
Created by potrace 1.16, written by Peter Selinger 2001-2019
</metadata>
<g transform="translate(0.000000,512.000000) scale(0.100000,-0.100000)"
fill="#000000" stroke="none">
<path d="M3495 5021 c-51 -23 -110 -89 -125 -138 -9 -31 -26 -48 -83 -89 -237
-169 -529 -277 -807 -300 -70 -6 -80 -5 -80 10 0 9 -9 25 -20 36 -19 19 -33
20 -435 20 -395 0 -417 -1 -470 -21 -74 -28 -146 -100 -174 -174 -18 -48 -21
-78 -21 -211 0 -149 -1 -157 -23 -174 l-22 -18 23 -24 c13 -15 22 -37 22 -56
0 -137 151 -282 293 -282 l42 0 94 -318 c126 -421 137 -454 157 -469 13 -10
78 -13 256 -13 225 0 239 1 258 20 13 13 20 33 20 57 0 20 -45 186 -100 369
-55 184 -100 338 -100 344 0 6 32 10 80 10 67 0 83 3 100 20 11 11 20 27 20
36 0 15 10 16 83 10 276 -23 566 -131 804 -300 57 -41 73 -58 83 -90 15 -52
93 -128 146 -144 125 -37 251 13 303 121 20 41 21 59 21 352 0 306 0 309 23
333 l22 24 -22 18 -23 18 0 434 c0 400 -2 436 -19 473 -23 49 -74 99 -123 119
-51 22 -153 20 -203 -3z m145 -161 c38 -21 40 -50 40 -782 0 -772 0 -770 -54
-784 -14 -3 -38 -3 -52 0 -54 14 -54 12 -54 785 0 469 4 719 10 738 19 49 65
67 110 43z m-280 -780 l0 -550 -65 40 c-237 145 -506 237 -772 262 l-123 12 0
238 0 238 43 0 c68 0 238 27 349 55 170 44 368 129 508 219 30 20 56 36 58 36
1 0 2 -247 2 -550z m-1120 0 l0 -320 -312 0 c-172 0 -331 5 -352 10 -49 11
-85 37 -111 81 -18 31 -20 52 -20 229 0 177 2 198 20 229 25 42 62 71 106 81
19 4 177 8 352 9 l317 1 0 -320z m-132 -793 c51 -171 93 -315 92 -319 0 -5
-48 -8 -107 -8 l-108 0 -93 313 c-51 171 -93 315 -92 320 0 4 48 7 108 7 l107
0 93 -313z"/>
<path d="M1080 3793 c-25 -31 -48 -61 -52 -68 -8 -13 115 -109 131 -103 5 2
29 29 55 60 l46 56 -64 56 c-35 31 -65 56 -67 56 -2 -1 -24 -26 -49 -57z"/>
<path d="M3937 3783 c-29 -26 -54 -49 -56 -50 -8 -5 20 -48 63 -97 l43 -50 66
49 c37 27 67 51 67 53 0 11 -112 142 -121 142 -5 0 -33 -21 -62 -47z"/>
<path d="M891 3521 c-23 -38 -41 -73 -41 -78 0 -5 33 -25 74 -45 l75 -37 35
64 c20 35 36 68 36 73 0 7 -81 62 -132 89 -4 2 -25 -28 -47 -66z"/>
<path d="M4137 3499 c-37 -22 -67 -44 -65 -47 2 -4 20 -39 40 -79 l38 -72 72
33 c40 18 74 39 76 47 2 16 -75 159 -86 159 -4 0 -38 -18 -75 -41z"/>
<path d="M757 3233 c-15 -37 -27 -74 -29 -82 -2 -9 21 -22 66 -37 39 -13 75
-24 82 -24 7 0 21 26 32 58 11 31 23 64 26 73 7 16 -2 21 -140 76 -7 2 -23
-24 -37 -64z"/>
<path d="M4282 3186 c-35 -13 -65 -26 -67 -28 -4 -3 42 -159 49 -165 1 -1 18
2 37 7 19 5 53 14 77 20 49 13 50 15 20 116 -24 84 -23 84 -116 50z"/>
<path d="M667 2908 c-8 -46 -14 -85 -12 -86 7 -8 156 -25 161 -19 10 10 33
142 26 148 -4 3 -34 11 -67 18 -33 7 -67 14 -76 17 -14 4 -20 -10 -32 -78z"/>
<path d="M4342 2848 c-37 -7 -52 -14 -48 -23 2 -7 8 -45 12 -84 l7 -71 85 0
85 0 -8 81 c-3 45 -9 88 -12 95 -6 16 -42 16 -121 2z"/>
<path d="M640 2574 l0 -87 61 7 c34 3 73 6 85 6 23 0 24 3 24 80 l0 80 -85 0
-85 0 0 -86z"/>
<path d="M4310 2458 c0 -29 -3 -69 -6 -89 l-6 -36 83 -10 c46 -6 85 -9 87 -8
2 2 6 43 9 92 l6 90 -39 6 c-22 4 -60 7 -86 7 l-48 0 0 -52z"/>
<path d="M1060 2466 c-102 -22 -178 -46 -274 -87 -49 -22 -100 -39 -113 -39
-15 0 -23 -6 -23 -17 -1 -11 -28 -36 -68 -63 -87 -57 -234 -206 -293 -295 -99
-149 -163 -304 -195 -473 -25 -133 -15 -384 19 -515 57 -215 150 -377 307
-538 162 -165 337 -268 557 -326 81 -21 127 -27 268 -30 147 -4 184 -2 275 17
307 62 601 260 758 507 15 24 35 43 45 43 11 0 17 8 17 23 0 13 18 65 40 117
23 51 53 136 67 189 25 90 27 110 27 301 0 191 -2 212 -26 303 -59 215 -161
392 -317 548 -157 156 -336 260 -548 316 -85 22 -122 26 -278 29 -124 2 -200
-1 -245 -10z m335 -160 c213 -17 445 -128 613 -295 126 -124 212 -271 269
-456 25 -84 27 -102 27 -275 0 -173 -2 -191 -27 -274 -58 -188 -130 -309 -266
-449 l-86 -89 -5 184 c-5 183 -5 184 -38 250 -40 81 -105 149 -181 188 l-56
29 48 1 c130 1 226 102 227 238 0 70 -14 112 -53 158 -26 31 -27 35 -27 170 0
113 -4 147 -19 179 -20 46 -89 112 -125 121 -15 3 -27 15 -30 30 -10 39 -83
111 -130 129 -36 14 -80 16 -287 13 l-244 -3 -60 -29 c-77 -38 -153 -114 -191
-191 -28 -58 -29 -66 -32 -225 -4 -159 -5 -165 -29 -195 -39 -45 -53 -88 -53
-157 1 -136 97 -237 227 -238 l48 -1 -56 -29 c-76 -39 -141 -107 -181 -188
-33 -66 -33 -67 -38 -250 l-5 -184 -86 89 c-137 141 -209 263 -265 449 -22 73
-27 116 -31 235 -8 211 22 342 116 523 158 303 478 516 819 545 48 4 98 6 112
5 14 -2 57 -5 95 -8z m69 -320 c29 -12 37 -23 53 -73 18 -58 18 -58 76 -76 50
-16 61 -24 73 -53 8 -18 14 -57 14 -87 l0 -53 -98 98 c-94 93 -100 98 -141 98
-32 0 -47 -6 -61 -22 -108 -130 -106 -129 -313 -137 -143 -5 -160 -8 -174 -26
-14 -18 -15 -13 -10 67 7 98 28 157 73 201 64 64 106 74 322 76 111 1 162 -3
186 -13z m25 -400 l34 -35 -5 -118 c-6 -132 -20 -178 -71 -232 -88 -93 -241
-95 -331 -5 -49 49 -68 106 -74 221 l-5 103 111 0 c125 0 188 17 258 70 21 16
41 30 45 30 3 0 20 -15 38 -34z m-449 -651 c0 -76 58 -160 135 -196 26 -12 63
-19 105 -19 42 0 79 7 105 19 77 36 135 120 135 196 0 40 1 40 62 19 61 -20
120 -73 149 -131 21 -44 23 -64 27 -253 l4 -205 -36 -18 c-20 -9 -39 -17 -41
-17 -3 0 -5 70 -5 155 l0 155 -80 0 -80 0 0 -183 0 -184 -69 -12 c-87 -16
-255 -16 -342 0 l-69 12 0 184 0 183 -80 0 -80 0 0 -155 c0 -85 -2 -155 -5
-155 -2 0 -21 8 -41 17 l-36 18 4 205 c4 189 6 209 27 253 28 56 87 110 145
131 61 22 66 20 66 -19z"/>
<path d="M4270 2171 c0 -8 -167 -11 -610 -11 -593 0 -611 -1 -665 -21 -74 -28
-146 -100 -174 -174 -20 -54 -21 -71 -22 -843 0 -783 0 -788 21 -845 29 -77
100 -148 175 -176 55 -21 68 -21 925 -21 857 0 870 0 925 21 74 28 146 100
174 174 21 55 21 69 21 845 0 773 0 790 -21 844 -25 67 -91 139 -157 169 -43
20 -69 23 -297 28 -137 3 -260 10 -272 14 -15 5 -23 3 -23 -4z m520 -197 c41
-24 80 -77 80 -110 l0 -24 -950 0 -950 0 0 23 c0 51 58 112 123 127 17 5 399
8 847 7 803 -2 816 -2 850 -23z m88 -951 c-3 -637 -4 -659 -23 -692 -26 -44
-62 -70 -111 -81 -51 -12 -1597 -12 -1648 0 -49 11 -85 37 -111 81 -19 33 -20
55 -23 692 l-3 657 961 0 961 0 -3 -657z"/>
<path d="M3838 1439 l-3 -81 -54 -19 c-30 -10 -59 -23 -65 -29 -7 -7 -30 10
-73 52 l-63 63 -62 -63 -63 -62 63 -63 c47 -47 59 -66 51 -74 -6 -6 -20 -36
-30 -65 l-18 -53 -80 -3 -81 -3 0 -79 0 -79 81 -3 80 -3 18 -53 c10 -29 24
-59 30 -65 8 -8 -4 -27 -51 -74 l-63 -63 63 -62 62 -63 63 63 c43 42 66 59 73
52 6 -6 35 -19 65 -29 l54 -19 3 -81 3 -81 79 0 79 0 3 81 3 80 53 18 c29 10
59 24 65 30 8 8 27 -4 74 -51 l63 -63 62 63 63 62 -63 63 c-47 47 -59 66 -51
74 6 6 20 36 30 65 l18 53 80 3 81 3 0 79 0 79 -81 3 -80 3 -18 53 c-10 29
-24 59 -30 65 -8 8 4 27 51 74 l63 63 -63 62 -62 63 -63 -63 c-47 -47 -66 -59
-74 -51 -6 6 -36 20 -65 30 l-53 18 -3 80 -3 81 -79 0 -79 0 -3 -81z m170
-265 c85 -35 142 -120 142 -214 0 -129 -101 -230 -230 -230 -202 0 -306 242
-167 389 64 67 171 90 255 55z"/>
<path d="M2490 725 l0 -85 86 0 87 0 -7 38 c-3 20 -6 58 -6 85 l0 47 -80 0
-80 0 0 -85z"/>
</g>
</svg>
