<?xml version="1.0" encoding="UTF-8" standalone="no"?>
<svg
   width="195"
   height="37"
   viewBox="0 0 195 37"
   fill="none"
   version="1.1"
   id="svg27429"
   sodipodi:docname="logo.svg"
   inkscape:version="1.1 (c68e22c387, 2021-05-23)"
   xmlns:inkscape="http://www.inkscape.org/namespaces/inkscape"
   xmlns:sodipodi="http://sodipodi.sourceforge.net/DTD/sodipodi-0.dtd"
   xmlns="http://www.w3.org/2000/svg"
   xmlns:svg="http://www.w3.org/2000/svg">
  <sodipodi:namedview
     id="namedview27431"
     pagecolor="#ffffff"
     bordercolor="#666666"
     borderopacity="1.0"
     inkscape:pageshadow="2"
     inkscape:pageopacity="0.0"
     inkscape:pagecheckerboard="0"
     showgrid="false"
     inkscape:zoom="3.2102564"
     inkscape:cx="30.371406"
     inkscape:cy="0.4672524"
     inkscape:window-width="1920"
     inkscape:window-height="1001"
     inkscape:window-x="-9"
     inkscape:window-y="-9"
     inkscape:window-maximized="1"
     inkscape:current-layer="g29348" />
  <defs
     id="defs27427">
    <linearGradient
       id="paint0_linear"
       x1="16.4102"
       y1="-16.6934"
       x2="10.5876"
       y2="20.6654"
       gradientUnits="userSpaceOnUse">
      <stop
         stop-color="#0096D9"
         id="stop27382" />
      <stop
         offset="1"
         stop-color="#00C198"
         id="stop27384" />
    </linearGradient>
    <linearGradient
       id="paint1_linear"
       x1="9.13537"
       y1="13.6181"
       x2="18.5045"
       y2="32.4248"
       gradientUnits="userSpaceOnUse">
      <stop
         stop-color="#002DD9"
         id="stop27387" />
      <stop
         offset="1"
         stop-color="#00B2AB"
         id="stop27389" />
    </linearGradient>
    <linearGradient
       id="paint2_linear"
       x1="23.8071"
       y1="-3.42432"
       x2="6.08252"
       y2="38.1714"
       gradientUnits="userSpaceOnUse">
      <stop
         stop-color="#3482C0"
         id="stop27392" />
      <stop
         offset="0.45"
         stop-color="#96BEDE"
         id="stop27394" />
      <stop
         offset="0.83"
         stop-color="#E1EDF6"
         id="stop27396" />
      <stop
         offset="1"
         stop-color="white"
         id="stop27398" />
    </linearGradient>
    <linearGradient
       id="paint3_linear"
       x1="1361.37"
       y1="132.275"
       x2="-132.261"
       y2="2238.51"
       gradientUnits="userSpaceOnUse">
      <stop
         stop-color="#3482C0"
         id="stop27401" />
      <stop
         offset="0.45"
         stop-color="#96BEDE"
         id="stop27403" />
      <stop
         offset="0.83"
         stop-color="#E1EDF6"
         id="stop27405" />
      <stop
         offset="1"
         stop-color="white"
         id="stop27407" />
    </linearGradient>
    <linearGradient
       id="paint4_linear"
       x1="25.6732"
       y1="3.26808"
       x2="10.5951"
       y2="32.7125"
       gradientUnits="userSpaceOnUse">
      <stop
         stop-color="#569FA1"
         id="stop27410" />
      <stop
         offset="0.36"
         stop-color="#97C4C5"
         id="stop27412" />
      <stop
         offset="0.8"
         stop-color="#E2EEEF"
         id="stop27414" />
      <stop
         offset="1"
         stop-color="white"
         id="stop27416" />
    </linearGradient>
    <radialGradient
       id="paint5_radial"
       cx="0"
       cy="0"
       r="1"
       gradientUnits="userSpaceOnUse"
       gradientTransform="translate(21.5938 32.382) scale(27.8184 27.5367)">
      <stop
         stop-color="#FFFF00"
         id="stop27419" />
      <stop
         offset="1"
         id="stop27421" />
    </radialGradient>
    <clipPath
       id="clip0">
      <rect
         width="27"
         height="37"
         fill="white"
         id="rect27424" />
    </clipPath>
  </defs>
  <g
     transform="matrix(0.03770651,0,0,-0.05106272,18.915357,153.20562)"
     fill="#000000"
     stroke="none"
     id="g28472">
    <path
       d="m 3165,2935 c -22,-8 -41,-15 -42,-15 -2,0 -3,-6 -3,-14 0,-8 10,-16 23,-18 22,-3 22,-3 25,-221 2,-214 2,-219 -18,-224 -13,-4 -19,-11 -16,-20 3,-8 6,-17 6,-19 0,-2 38,-4 84,-4 67,0 85,3 90,16 8,22 8,24 -9,24 -21,0 -26,32 -23,150 3,105 3,105 31,114 55,20 62,4 65,-144 1,-78 7,-139 14,-147 14,-17 99,-17 123,0 17,13 17,15 -3,35 -20,20 -22,32 -22,143 0,157 -16,188 -96,189 -28,0 -53,-8 -77,-24 l -36,-25 -3,107 -3,107 -35,2 c -19,2 -53,-4 -75,-12 z"
       id="path28450" />
    <path
       d="m 2186,2927 c -48,-15 -55,-30 -21,-45 l 25,-12 v -209 c 0,-199 -1,-211 -20,-221 -11,-6 -17,-16 -14,-25 9,-22 152,-22 161,0 3,9 -2,21 -11,28 -14,10 -16,45 -18,252 l -3,240 -30,2 c -16,1 -48,-4 -69,-10 z"
       id="path28452"
       style="fill:#ff5555" />
    <path
       d="m 2835,2885 c -70,-25 -102,-85 -85,-160 11,-48 46,-83 135,-133 82,-46 105,-77 87,-116 -10,-22 -18,-26 -51,-26 -49,0 -95,35 -111,85 -10,31 -15,35 -47,35 h -36 l 7,-60 c 4,-33 12,-73 17,-89 10,-27 13,-29 39,-20 19,7 41,7 67,0 126,-35 233,23 233,128 0,72 -29,106 -142,166 -88,47 -112,90 -70,128 41,37 112,5 128,-57 5,-20 12,-26 35,-26 29,0 29,0 29,63 0,34 -4,67 -8,74 -4,6 -25,11 -47,10 -22,0 -62,2 -90,6 -35,5 -62,3 -90,-8 z"
       id="path28454" />
    <path
       d="m 568,2869 c -45,-27 -63,-60 -62,-115 1,-60 39,-105 130,-155 104,-57 127,-96 83,-140 -43,-43 -135,2 -160,78 -9,27 -16,33 -40,33 -33,0 -36,-12 -19,-101 12,-64 21,-75 48,-60 15,8 29,8 49,0 43,-17 134,-14 170,4 51,27 73,63 73,118 0,42 -5,55 -32,84 -18,19 -64,52 -103,72 -80,44 -105,77 -89,120 8,23 16,29 47,31 49,4 82,-17 98,-63 10,-26 19,-35 36,-35 22,0 23,4 23,63 0,34 -4,67 -8,72 -4,6 -52,11 -107,13 -87,2 -105,0 -137,-19 z"
       id="path28456"
       style="fill:#ff5555;fill-opacity:1" />
    <path
       d="m 4001,2850 c -6,-22 -25,-55 -41,-74 -35,-39 -39,-66 -10,-66 19,0 20,-7 20,-97 1,-175 21,-213 114,-213 39,0 58,5 74,20 31,29 28,95 -2,71 -56,-43 -76,-13 -76,115 v 104 h 40 c 38,0 40,2 40,30 0,28 -2,30 -40,30 h -40 v 48 c 0,52 -12,72 -45,72 -17,0 -25,-10 -34,-40 z"
       id="path28458" />
    <path
       d="m 975,2773 c -81,-18 -111,-44 -65,-56 19,-5 20,-14 20,-133 0,-103 -3,-131 -16,-145 -26,-29 -8,-39 71,-39 78,0 102,13 69,37 -17,12 -20,31 -24,176 -5,172 -5,172 -55,160 z"
       id="path28460"
       style="fill:#ff5555" />
    <path
       d="m 1205,2775 c -5,-2 -29,-9 -52,-15 -47,-12 -55,-30 -20,-45 21,-10 22,-16 25,-137 2,-118 1,-128 -17,-138 -12,-6 -18,-16 -15,-25 9,-21 152,-22 160,0 3,8 -1,22 -10,30 -13,13 -16,39 -16,130 0,106 1,115 22,129 29,21 51,20 71,-2 25,-27 25,-247 0,-260 -10,-6 -14,-16 -10,-26 5,-13 21,-16 75,-16 80,0 104,15 72,43 -18,15 -20,30 -20,137 0,108 2,120 19,130 27,14 47,13 65,-6 13,-12 16,-41 16,-148 0,-155 3,-162 76,-153 55,6 78,23 52,38 -16,9 -18,26 -18,130 0,136 -13,183 -55,199 -40,15 -68,12 -115,-13 -42,-22 -45,-22 -61,-6 -32,32 -84,34 -139,7 -45,-22 -50,-23 -50,-8 0,23 -27,35 -55,25 z"
       id="path28462"
       style="fill:#ff5555" />
    <path
       d="m 2505,2770 c -82,-18 -130,-90 -129,-191 0,-109 50,-169 147,-177 81,-6 162,38 138,77 -7,10 -13,10 -29,2 -11,-6 -38,-11 -60,-11 -45,0 -76,27 -87,78 l -7,32 h 91 c 99,0 111,7 111,65 0,86 -84,146 -175,125 z"
       id="path28464"
       style="fill:#ff5555" />
    <path
       d="m 3654,2762 c -56,-27 -85,-77 -92,-158 -10,-123 45,-200 150,-210 70,-7 133,24 166,81 19,34 22,52 20,122 -3,87 -16,116 -71,157 -38,28 -121,32 -173,8 z m 107,-49 c 22,-25 20,-237 -2,-259 -27,-26 -57,-9 -70,39 -14,53 -7,200 10,221 17,21 45,20 62,-1 z"
       id="path28466" />
    <path
       d="m 1768,2758 c -33,-11 -37,-34 -8,-43 19,-6 20,-15 20,-206 0,-164 -3,-201 -14,-205 -8,-3 -12,-12 -9,-20 8,-20 159,-20 166,0 4,9 -2,17 -13,21 -19,6 -38,64 -26,83 3,5 28,12 55,14 96,9 161,89 161,198 0,70 -28,133 -69,154 -35,19 -103,21 -134,5 -16,-9 -22,-9 -25,0 -4,13 -66,13 -104,-1 z m 196,-71 c 17,-23 21,-43 21,-107 0,-94 -22,-135 -71,-135 h -29 l -3,124 c -1,69 0,131 3,139 8,22 56,10 79,-21 z"
       id="path28468"
       style="fill:#ff5555" />
    <path
       d="m 4210,2733 c 0,-64 9,-83 39,-83 22,0 29,6 36,33 9,30 13,32 58,35 l 48,3 -97,-145 c -60,-90 -94,-151 -91,-161 5,-13 30,-15 156,-15 95,0 152,4 156,11 4,6 9,37 12,70 6,58 6,59 -20,59 -21,0 -30,-8 -41,-34 -18,-42 -42,-56 -97,-56 h -43 l 26,28 c 14,15 60,80 103,145 61,95 74,122 64,133 -9,11 -44,14 -160,14 h -149 z"
       id="path28470" />
    <ellipse
       style="fill:#ff5555;fill-opacity:1;fill-rule:evenodd;stroke-width:22.7898"
       id="path29077-8"
       transform="scale(1,-1)"
       ry="51.561287"
       rx="65.350296"
       cy="-2863.0835"
       cx="952.3269" />
    <path
       style="fill:#ffffff;fill-opacity:1;fill-rule:evenodd"
       id="path31255"
       transform="scale(1,-1)"
       sodipodi:type="arc"
       sodipodi:cx="2549.8396"
       sodipodi:cy="-2616.2961"
       sodipodi:rx="89.840721"
       sodipodi:ry="101.1225"
       sodipodi:start="3.1318886"
       sodipodi:end="0.020047131"
       sodipodi:arc-type="slice"
       d="m 2460.0031,-2615.3149 a 89.840721,101.1225 0 0 1 44.9327,-88.5667 89.840721,101.1225 0 0 1 90.61,0.5275 89.840721,101.1225 0 0 1 44.1165,89.085 l -89.8227,-2.027 z" />
  </g>
  <g
     transform="matrix(0.13333333,0,0,-0.13333333,-5578.4905,5650.4227)"
     fill="#000000"
     stroke="none"
     id="g29348"
     style="fill:#28170b;fill-opacity:1">
    <path
       d="M 10,41710 V 0 H 41695 83380 V 41710 83420 H 41695 10 Z m 83330,5 V 50 H 41695 50 v 41665 41665 h 41645 41645 z"
       id="path29344"
       style="fill:#28170b;fill-opacity:1" />
    <path
       d="m 41956.697,42365.764 c -4.555,-0.853 -8.099,-4.323 -9.23,-9.022 -0.335,-1.399 -0.377,-3.674 -0.09,-5.116 0.906,-4.664 4.034,-8.092 8.525,-9.363 l 0.999,-0.289 4.716,-0.03 4.706,-0.03 v -23.854 -23.843 l -7.61,-0.06 c -7.415,-0.03 -7.649,-0.03 -8.637,-0.278 -1.996,-0.468 -3.393,-1.079 -4.971,-2.167 -1.131,-0.791 -2.862,-2.585 -3.596,-3.717 -0.62,-0.96 -1.578,-2.817 -1.863,-3.629 -0.113,-0.32 -9.973,-32.323 -21.911,-71.113 -13.354,-43.383 -21.757,-70.868 -21.849,-71.422 -0.723,-4.303 1.437,-8.746 5.195,-10.721 0.662,-0.352 3.993,-1.549 5.399,-1.944 0.336,-0.1 1.182,-0.203 1.885,-0.234 1.446,-0.07 2.668,0.138 3.92,0.662 2.201,0.918 -1.018,-2.157 0,0 0.326,0.714 23.765,64.898 44.413,132.115 l 0.468,1.515 h 4.573 4.584 l 0.03,-64.3 0.03,-64.312 0.234,-0.853 c 0.255,-0.962 0.876,-2.382 1.356,-3.109 0.57,-0.864 1.629,-1.953 2.474,-2.54 0.917,-0.641 1.691,-1.015 2.883,-1.367 0.764,-0.236 0.946,-0.246 4.666,-0.246 3.728,0 3.901,0 4.725,0.246 3.26,0.929 5.582,3.319 6.662,6.801 l 0.225,0.747 0.03,64.473 0.03,64.46 h 4.105 4.104 l 19.803,-63.82 c 10.878,-35.108 19.964,-64.354 20.178,-64.994 0.499,-1.484 1.161,-2.649 2.169,-3.771 2.526,-2.819 6.295,-3.896 9.84,-2.819 1.864,0.567 4.055,1.379 4.849,1.794 2.272,1.187 4.104,3.545 4.889,6.279 0.356,1.272 0.458,3.439 0.204,4.71 -0.09,0.457 -9.809,31.946 -21.605,69.97 -11.796,38.023 -21.554,69.521 -21.685,69.992 -0.134,0.48 -0.297,1.248 -0.367,1.719 -0.205,1.44 -0.856,3.299 -1.732,4.965 -0.978,1.836 -1.314,2.327 -2.272,3.279 -1.314,1.301 -2.22,1.836 -4.604,2.679 -2.586,0.929 -2.271,0.897 -10.563,0.95 l -7.313,0.06 v 23.843 23.842 l 2.73,0.06 c 2.871,0.06 3.29,0.117 4.808,0.66 3.9,1.401 6.824,5.019 7.547,9.344 0.295,1.783 0.09,4.207 -0.489,5.905 -1.324,3.866 -4.187,6.621 -8.058,7.741 l -0.987,0.29 -18.844,0.02 c -16.003,0 -18.966,0 -19.659,-0.139 z"
       id="path29346"
       style="fill:#28170b;fill-opacity:1;stroke-width:0.0104291"
       sodipodi:nodetypes="cccccccccccccccccccccccccccccccsccccccccccccccccccccccccccccccccc" />
  </g>
</svg>
